<svg xmlns="http://www.w3.org/2000/svg" viewBox="0 0 95.78 95.78"><defs><style>.cls-1{fill:#fff;fill-rule:evenodd;}</style></defs><g id="Layer_2" data-name="Layer 2"><g id="Layer_1-2" data-name="Layer 1"><path class="cls-1" d="M75,87.8c.48-8.21-3.22-17.08-9.09-21.92a27,27,0,0,0-9-5.33,27.3,27.3,0,0,0-26.39,4.72,24.41,24.41,0,0,0-3.59,3.6c-.18.21-.43.53-.64.79-.41.53-.82,1.09-1.19,1.68A27.13,27.13,0,0,0,20.8,84c-.08.93-.08,1.83-.08,2.77,0,1.41.05,1.13,1.09,1.73,11.37,6.64,23.88,9,37.11,6.07a49.84,49.84,0,0,0,12.49-4.61A27.91,27.91,0,0,0,75,87.8Z"/><path class="cls-1" d="M2.23,33.44c.68-.12.17,0,.43-.18l.16-.13A1,1,0,0,0,2.94,33c.46-.63-.37-.87,2.08-.86l5-.44c0,.75-.23.83.1,1.28.34-.63.73-1.69,1.07-2.42a42.46,42.46,0,0,1,4.15-6.91,49.37,49.37,0,0,1,5.16-5.74c.65-.59,1.34-1.1,2-1.7a40.6,40.6,0,0,1,44.86-4c2.28,1.32,6.62,4.09,8.45,6.18,1.36,1.54,1.61,1.44,3.55,3.78l3.07,4.19c.8-.42.18-.28.58-.94a43.18,43.18,0,0,0,5.72-.12l.13,0c.5-.08.16.26.27-.27l.27-.84c-.2-1.72-6.55-9.17-7.73-10.33L76.79,9.66A48.08,48.08,0,0,0,41.57.39,46.73,46.73,0,0,0,21.79,7.72c-1,.62-1.74,1.16-2.63,1.82l-4.9,4.16L10,18.53C7,22.61,3.6,28.16,2.23,33.44Z"/><path class="cls-1" d="M46.88,28.75A12.59,12.59,0,1,0,60.43,40.22,12.59,12.59,0,0,0,46.88,28.75Z"/><path class="cls-1" d="M15.6,83.22c.61-2.28.32-3.33,1.59-7a35.1,35.1,0,0,1,2.72-5.9,32.56,32.56,0,0,1,3.61-5L28,61.05c-1-.62-4.76-1.1-6.13-1.13a21.19,21.19,0,0,0-6.52.9,20.39,20.39,0,0,0-9,5.64c-.32.35-1.53,1.56-1.56,2A9.06,9.06,0,0,0,6,71a52.82,52.82,0,0,0,2.81,4.52c1.05,1.54,2.16,2.8,3.23,4.09l1.74,1.85C14.34,82.11,15.07,82.65,15.6,83.22Z"/><path class="cls-1" d="M67.82,61.05a6.58,6.58,0,0,0,1.11,1l3.28,3.19c.59.8,1.25,1.51,1.9,2.4,2.81,3.86,5.84,10.44,6,15.6a11.8,11.8,0,0,0,2-1.76A47.43,47.43,0,0,0,89.83,71c1.64-2.92,1.68-2.27-.35-4.54a20.18,20.18,0,0,0-8.9-5.62C77.17,59.74,71,59.49,67.82,61.05Z"/><path class="cls-1" d="M20.18,38.53A8.77,8.77,0,1,0,30,46.05,8.77,8.77,0,0,0,20.18,38.53Z"/><path class="cls-1" d="M72.89,38.62A8.75,8.75,0,1,0,76,55.85a8.75,8.75,0,1,0-3.06-17.23Z"/><path class="cls-1" d="M2.23,33.44a39.09,39.09,0,0,0-1.7,7.17A48.56,48.56,0,0,0,1.74,60.72c.31,1.08.88,2.53,1.07,3.53.39-.19.09,0,.41-.27a3.22,3.22,0,0,0,.35-.38c.25-.28.44-.47.71-.73,1.44-1.33,4.59-3.56,4.59-3.56C8.47,57.06,8,56.23,7.58,53a41,41,0,0,1,.67-14c.49-2.25,1.22-4,1.82-6-.33-.45-.1-.53-.1-1.28l-5,.44c-2.45,0-1.62.23-2.08.86a1,1,0,0,1-.12.16l-.16.13C2.4,33.44,2.91,33.32,2.23,33.44Z"/><path class="cls-1" d="M88.31,43.94a37.83,37.83,0,0,1,0,8.17c-.29,2.73-.91,4.77-1.39,7.2a13.89,13.89,0,0,0,1.59,1.1c.61.42,1,.7,1.56,1.17L93,64.26c.34-1.63,1.12-3.51,1.54-5.37a48,48,0,0,0,1.26-12.51c-.07-2.22-.47-4.28-.58-6.36l-.5,2.38s0,.12-.33.19l-.28,0a3.24,3.24,0,0,1-.44,0c-.33,0-.68,0-1,0-4.89,0-3.73-.26-4.09.86C88.4,43.93,88.56,43.65,88.31,43.94Z"/><path class="cls-1" d="M82.42,26.37l2,3.77a39.94,39.94,0,0,1,3.87,13.8c.25-.29.09,0,.22-.43.36-1.12-.8-.87,4.09-.86.33,0,.68,0,1,0a3.24,3.24,0,0,0,.44,0l.28,0c.36-.07.33-.19.33-.19l.5-2.38a75.79,75.79,0,0,0-2.27-8.56c-.55-1.46-2.61-6.64-3.52-7.29l-.27.84c-.11.53.23.19-.27.27l-.13,0a43.18,43.18,0,0,1-5.72.12C82.6,26.09,83.22,26,82.42,26.37Z"/></g></g></svg>