<svg xmlns="http://www.w3.org/2000/svg" viewBox="0 0 81.35 85.02"><defs><style>.cls-1{fill:#fff;fill-rule:evenodd;}</style></defs><g id="Layer_2" data-name="Layer 2"><g id="Layer_1-2" data-name="Layer 1"><path class="cls-1" d="M59.61,44.24c2.45,0,5.42.47,6.73-1.18.94-1.17,1.24-4.57-1.88-5-3.31-.46-3.34,1.19-3.34-4.56V25.6c0-2.85.05-5.09-2.65-5.28-2.87-.2-3.39,2-3.38,4.71l.07,11.54c-.31,1.34-.95,1.46-2.51,1.46s-2.55.22-3.13-.84c-.75-1.37.1-5.52-.18-7.34-.6-3.91,1.32-8.7-2.23-9.46-3-.64-3.7,1.58-3.69,4.08V36.34C43.36,38,42.61,38,41,38c-1.44,0-2.72.25-3.22-.75C37.13,36,38.12,24,37.24,22a3.06,3.06,0,0,0-5.12-.54c-1.23,1.94-.15,13.26-.59,15.41-.34,1.65-5.1,1.71-5.59,0-.18-.64,0-10.43,0-11.64,0-2.78-.45-4.71-3-4.9a2.64,2.64,0,0,0-2.67,1.28A6.67,6.67,0,0,0,19.7,25l0,11.83c-.3,1.53-1.31,1-3,1.17-2.38.17-3.51,2.36-2.4,4.65,1,2,3.73,1.56,6.54,1.56Z"/><path class="cls-1" d="M18,17.5H63.19a2,2,0,0,0,1.88-2.07c0-1.58-3.7-3.29-5.57-4.41L44,1.68C42,.48,40.93-.8,38.6.63,35.25,2.69,16.7,13.47,16.12,14.49A2,2,0,0,0,18,17.5Z"/><path class="cls-1" d="M.06,67.55v7.13H23s0-5.07,0-7.63a2.56,2.56,0,1,0-5.1,0c0,2.44,0,4-1.78,4-2.05,0-2.05-1.55-2.05-4a2.53,2.53,0,1,0-5,0c0,2.44,0,4-2,4s-1.91-1.55-1.91-4C5.17,63.51.06,63,.06,67.55Z"/><path class="cls-1" d="M0,61.34a1.41,1.41,0,0,0,1.51,1.5H21.33c1.14,0,1.72-.56,1.72-1.5,0-.67-.62-1.19-1.26-1.74-3-2.59-9.53-8.36-10.23-8.36s-8.86,7-10.48,8.35C.58,60.06,0,60.49,0,61.34Z"/><path class="cls-1" d="M29,77.88V85H52s0-5.08,0-7.63a2.56,2.56,0,1,0-5.1,0c0,2.43,0,4-1.78,4-2.05,0-2.05-1.56-2.05-4a2.53,2.53,0,1,0-5,0c0,2.43,0,4-2,4s-1.91-1.56-1.91-4C34.09,73.84,29,73.3,29,77.88Z"/><path class="cls-1" d="M28.92,71.67a1.42,1.42,0,0,0,1.51,1.51H50.25c1.14,0,1.72-.57,1.72-1.51,0-.66-.62-1.18-1.26-1.73-3-2.6-9.53-8.37-10.23-8.37s-8.86,7-10.48,8.35C29.5,70.4,28.92,70.82,28.92,71.67Z"/><path class="cls-1" d="M58.36,67.55v7.13h23s0-5.07,0-7.63a2.56,2.56,0,1,0-5.1,0c0,2.44,0,4-1.78,4-2.06,0-2.06-1.55-2.06-4a2.53,2.53,0,1,0-5,0c0,2.44,0,4-2,4s-1.91-1.55-1.91-4C63.47,63.51,58.36,63,58.36,67.55Z"/><path class="cls-1" d="M58.3,61.34a1.41,1.41,0,0,0,1.5,1.5H79.62c1.14,0,1.73-.56,1.73-1.5,0-.67-.63-1.19-1.27-1.74-3-2.59-9.53-8.36-10.23-8.36-.55,0-8.86,7-10.48,8.35C58.87,60.06,58.3,60.49,58.3,61.34Z"/></g></g></svg>